<?xml version="1.0" encoding="utf-8"?>
<!-- Generator: Adobe Illustrator 15.0.0, SVG Export Plug-In . SVG Version: 6.00 Build 0)  -->
<!DOCTYPE svg PUBLIC "-//W3C//DTD SVG 1.1//EN" "http://www.w3.org/Graphics/SVG/1.1/DTD/svg11.dtd" [
	<!ENTITY ns_extend "http://ns.adobe.com/Extensibility/1.0/">
	<!ENTITY ns_ai "http://ns.adobe.com/AdobeIllustrator/10.0/">
	<!ENTITY ns_graphs "http://ns.adobe.com/Graphs/1.0/">
	<!ENTITY ns_vars "http://ns.adobe.com/Variables/1.0/">
	<!ENTITY ns_imrep "http://ns.adobe.com/ImageReplacement/1.0/">
	<!ENTITY ns_sfw "http://ns.adobe.com/SaveForWeb/1.0/">
	<!ENTITY ns_custom "http://ns.adobe.com/GenericCustomNamespace/1.0/">
	<!ENTITY ns_adobe_xpath "http://ns.adobe.com/XPath/1.0/">
]>
<svg version="1.1" id="Capa_1" xmlns:x="&ns_extend;" xmlns:i="&ns_ai;" xmlns:graph="&ns_graphs;"
	 xmlns="http://www.w3.org/2000/svg" xmlns:xlink="http://www.w3.org/1999/xlink" x="0px" y="0px" width="134px" height="79px"
	 viewBox="0 0 134 79" enable-background="new 0 0 134 79" xml:space="preserve">
<metadata>
	<sfw  xmlns="&ns_sfw;">
		<slices></slices>
		<sliceSourceBounds  height="79" width="134" y="381" x="230.5" bottomLeftOrigin="true"></sliceSourceBounds>
	</sfw>
</metadata>
<g id="Background">
</g>
<g id="Guides">
</g>
<g>
	<g>
		<path fill="#E20031" d="M68.605,55.798c-0.808,1.604-2.194,1.636-3.215,0.751c0,0-2.218-2.447-3.544-4.648
			c-2.148-3.563-3.062-7.828-1.437-12.699l0.917-4.085c0.106-1.557,0.202-2.467,1.039-4.229l-0.075-0.931
			c0,0-0.052-0.312-0.024-0.727c0.103-1.5,1.057-2.181,2.544-2.278c2.885-2.079,4.352-1.834,6.458,1.05
			c2.168,0.617,2.674,2.437,1.336,4.154c0.127,2.066-0.104,4.47-0.104,4.47l0.127,3.482c0.459,2.822,1.234,5.304-0.654,8.711
			c0,0-1.086,1.969-1.727,3.255C69.468,53.641,68.605,55.798,68.605,55.798z"/>
		<path fill="#FFFFFF" d="M65.615,40.816c-0.258-0.452-0.754-0.823-1.216-1.035c-1.038-0.476,0.207-0.467,1.194-1.258
			c0.065-0.053,0.128-0.118,0.186-0.192c0.084-1.332,0.138-2.501,0.071-3.592c-0.137-0.585-2.856,0.058-2.495-0.596
			c0.302-0.546,1.579-0.693,2.677-1.445c0.604-0.413,1.124-3.183,1.633-3.143c0.731,0.058-0.12,2.76,0.47,3.301
			c1.383,1.272,2.482,1.809,2.562,2.188c0.212,0.989-2.297-0.757-2.873-0.03c-0.6,1.004-0.874,2.129-1.019,3.325
			c0.088,0.194,0.213,0.26,0.307,0.381c0.734,0.943,1.945,1.147,0.802,1.436c-0.448,0.113-0.933,0.365-1.285,0.684l-0.049,0.999
			c-0.041,0.709-0.087,1.546-0.124,2.384c0.149,0.11,0.172,0.16,0.267,0.258c0.739,0.752,1.792,0.854,0.857,1.162
			c-0.44,0.146-0.892,0.437-1.155,0.83c-0.037,0.289-0.036,0.582-0.03,0.844c0.02,0.744,0.062,1.602,0.129,2.319
			c0.04,0.064,0.07,0.101,0.139,0.153c0.698,0.561,1.596,0.535,0.84,0.896c-0.305,0.145-0.604,0.379-0.8,0.67
			c0.162,1.504,0.271,2.488-0.064,2.55c-0.385,0.067-0.729-0.942-0.975-2.358c-0.272-0.302-0.681-0.508-1.066-0.594
			c-0.818-0.182,0.063-0.358,0.618-1.059c0.071-0.09,0.086-0.134,0.124-0.261c0.002-0.751-0.045-1.55-0.061-2.303
			c-0.005-0.265,0.001-0.595,0.016-0.968c-0.243-0.364-0.644-0.645-1.043-0.795c-0.91-0.344,0.146-0.406,0.935-1.135
			c0.07-0.064,0.156-0.162,0.226-0.265c0.056-0.884,0.116-1.769,0.152-2.46L65.615,40.816z"/>
		<path fill="#FFFFFF" d="M63.534,30.042c-0.143-0.35-0.563-0.824-0.026-1.573c0.571-0.795,1.398-0.558,1.614-0.558
			C64.824,28.716,64.13,29.427,63.534,30.042z"/>
		<path fill="#FFFFFF" d="M71.961,31.227c0,0,0.704-0.57,0.398-1.347c-0.307-0.775-1.241-0.879-1.241-0.879
			C71.268,29.711,71.447,30.558,71.961,31.227z"/>
		<path fill="#E20031" d="M77.947,40.2c-0.957,0.362-2.68,0.253-3.299,0.14c-1.072-0.197-1.363-1.501-0.969-2.317
			c0.443-0.92,1.786-0.69,2.668-0.231C77.374,38.327,79.036,39.79,77.947,40.2z"/>
		<path fill="#E20031" d="M52.76,33.892c0.437,0.322,1.302,1.027,1.488,1.086c1.173-0.079,4.531-1.003,5.455,0.548
			c0.431,0.724,0.422,2.19-0.305,2.73c-1.507,1.123-5.05-0.094-5.743-0.439c-1.206-0.602-2.433-2.069-3.096-3.762
			C50.209,33.002,52.127,33.425,52.76,33.892z"/>
		<path fill="#E20031" d="M83.561,51.171c0.246-1.655,1.664-3.981,1.664-3.981c-0.736-1.008-0.515-2.465,0.653-2.861
			c1.802-0.612,2.771,1.292,1.583,2.636c-0.236,0.269-0.441,0.31-0.604,0.628c-0.523,1.032-0.793,2.195-0.668,2.862
			c0.274,1.446,1.906,1.94,3.447,1.833c1.09-0.078,3.232-0.28,4.391-0.979c0.197-0.117,0.414-0.965,0.979-1.238
			c0.957-0.463,2.169-0.101,2.561,0.959c0.396,1.065-0.53,2.57-2.355,2.097c-0.197-0.052-0.674-0.249-0.968-0.209
			c-1.236,0.161-2.466,0.651-3.941,0.964c-0.551,0.115-2.069,0.237-2.366,0.294c0.655,0.414,2.258,1.06,3.143,1.197
			c0.23,0.036,0.453-0.04,0.663-0.054c2.069-0.127,2.454,2.384,0.747,2.771c-1.52,0.347-2.145-1.364-2.28-1.442
			c-0.856-0.48-3.419-1.387-4.167-1.588c0.107,0.653,0.705,1.444,1.191,1.688c0.148,0.075,0.854,0.163,1.017,0.226
			c1.905,0.732,0.683,3.016-0.915,2.352c-0.986-0.41-0.686-1.096-1.082-1.491c-1.314-1.308-2.075-1.871-2.562-3.455
			C83.318,53.174,83.378,52.407,83.561,51.171z"/>
		<path fill="#E20031" d="M54.035,70.968c0,0.228-0.046,0.585-0.046,0.585c-0.081,1.143-0.049,2.326,0.386,3.377
			c0.116,0.28,0.365,0.519,0.523,0.783c1.657,2.768-3.501,3.328-3.014,0.559c0.035-0.197,0.332-0.705,0.452-0.867
			c0.218-0.721-0.352-2.894-0.716-2.764c-0.775,0.383-2.378,2.674-2.821,3.823c-0.132,0.343,0.021,0.833-0.032,1.08
			c-0.586,2.666-4.931,1.276-3.641-1.008c0.325-0.576,0.946-0.565,1.6-1.026c0.57-0.4,1.255-1.33,2.147-3.385l0.082-0.199
			c0.496-1.357-7.367-0.466-8.337-0.005c0,0-0.974,0.865-1.778,0.791c-2.515-0.228-2.182-3.717,0.479-3.438
			c0.554,0.059,1.162,0.651,1.162,0.651c1.478,0.423,5.603-0.254,7.179-0.606c0.631-0.144,0.766-0.963,0.474-1.5
			c-0.312-0.569-1.571-1.75-2.367-1.683c-0.26,0.125-0.472,0.195-0.634,0.205c-2.747,0.328-2.729-3.364,0.021-3.233
			c0.969,0.045,1.397,0.772,1.533,1.326c1.01,1.547,5.157,2.545,6.167,3.764C53.613,69.109,54.037,69.802,54.035,70.968z"/>
		<path fill="#E20031" d="M78.426,37.783c0.039-1.148,1.191-2.348,1.071-3.805c-0.005-0.019-0.399-0.325-0.522-0.609
			c-0.441-1.031,0.25-1.681,1.031-1.78c0.833-0.107,1.768,0.408,1.532,1.625c-0.086,0.449-0.759,0.714-0.82,0.875
			c-0.053,0.252-0.198,1.952,0.003,2.188c0.602,0.097,2.723-1.576,2.788-2.076c0.115-0.888,0.122-1.459,0.974-1.746
			c0.822-0.276,1.515,0.119,1.785,0.72c0.354,0.789-0.006,1.89-1.654,1.858c-0.338-0.007-2.609,2.038-2.697,2.209
			c0.457,0.233,2.289,0.082,3.09-0.067c0.229-0.042,0.492-0.208,0.643-0.253c1.033-0.31,1.654,0.45,1.601,1.188
			c-0.037,0.497-0.427,0.973-1.031,1.144c-0.594,0.168-0.954-0.284-1.317-0.645c-0.231-0.23-3.051-0.084-3.293,0.053
			c0.135,0.276,0.608,0.803,0.98,0.857c1.121-0.157,1.639,0.332,1.689,1.036c0.084,1.209-1.519,1.613-2.248,0.393
			c-0.08-0.135-0.107-0.315-0.168-0.51c-0.051-0.155-2.062-0.306-2.979-1.315C78.507,38.706,78.41,38.249,78.426,37.783z"/>
		<path fill="#E20031" d="M50.21,32.445c-0.905-0.323-1.628-0.937-2.077-1.29c-0.734-0.579-2.111-2.147-3.248-2.337
			c-0.175-0.028-0.332,0.054-0.492,0.094c-2.419,0.608-2.67-2.493-0.751-2.425c0.939,0.033,1.406,1.026,1.406,1.026
			c0.63,0.671,3.238,1.688,3.295,1.679c-0.295-0.748-1.482-2.939-2.016-3.485c-0.208-0.213-0.718-0.271-0.979-0.447
			c-1.342-0.908-0.387-2.685,0.917-2.446c0.864,0.159,1.272,0.708,1.287,1.482l-0.004,0.251l-0.039,0.508
			c0.384,0.763,0.814,1.806,1.826,2.919c0.396,0.436,1.132,1.032,1.276,1.093c0.116-0.441,0.075-1.991-0.089-2.436
			c-0.06-0.16-0.199-0.254-0.311-0.381c-0.88-1.01-0.07-2.316,0.987-2.27c0.646,0.029,1.39,0.443,1.398,1.352
			c0.003,0.558-0.507,1.052-0.609,1.315c-0.253,0.649-0.119,2.925,0.783,3.892c0.336,0.357,0.725,0.301,0.966-0.126
			c0.146-0.258-0.144-0.677,0.257-1.307c0.155-0.241,0.836-0.814,1.736-0.324c0.947,0.524,0.8,2.025-0.279,2.279
			c-0.098,0.023-0.748,0.01-0.834,0.043c-0.816,0.316-1.023,1.303-1.927,1.663C52.169,32.976,51.125,32.771,50.21,32.445z"/>
		<path fill="#E20031" d="M74.031,47.458c1.285-1.224,4.975-2.192,6.619-2.229c2.453-0.053,1.021,3.018,0.955,3.045
			c-0.494,0.647-1.98,1.615-4.088,2.959c-0.949,0.604-2.504,1.707-3.761,2.526c-1.129,0.737-3.481,1.483-2.931-0.052
			c0.717-2.001,1.158-2.477,1.158-2.477c2.82-1.017,5.648-2.535,7.002-3.492c-1.539,0.501-4.098,1.338-5.945,1.693
			C73.042,49.434,73.438,48.023,74.031,47.458z"/>
		<path fill="#E20031" d="M54.306,69.287c0,0,4.022-0.706,5.5-0.275c1.479,0.43,2.909,1.881,2.968,2.398
			c-0.821,0.083-3.321,0.349-5.764-0.266C54.567,70.532,54.306,69.287,54.306,69.287z"/>
		<path fill="#E20031" d="M76.131,60.621c0,0,0.344-2.579,3.184-4.191c2.397-1.363,3.668-1.757,3.707-1.478
			c0.179,1.25-0.713,2.387-2.783,3.716C77.673,60.316,76.131,60.621,76.131,60.621z"/>
		<path fill="#E20031" d="M81.018,49.837c0,0-0.851,3.17-1.735,4.562c-0.886,1.392-2.591,2.711-3.318,4.891
			c-0.312,0.932-0.557,0.4-0.595,0.171c-0.299-1.782,0.182-4.208,0.816-5.596C76.693,52.755,81.018,49.837,81.018,49.837z"/>
		<path fill="#E20031" d="M55.274,60.736c0,0,0.874,0.186,1.392,0.408c1.526,0.653,1.466,1.207,2.993,2.933
			c1.313,1.483,3.836,3.808,4.107,5.448c0.179,1.084,0.471,1.92-0.83,0.678c-1.606-1.532-6.058-3.365-9.418-5.959
			c-3.668-2.83-3.9-4.25-4.104-4.564L55.274,60.736z"/>
		<path fill="#E20031" d="M60.443,52.104l0.695,0.85c-0.698,0.546-1.766,1.4-3.503,2.252c-2.229,1.093-3.376,1.52-3.376,1.52
			s3.057-0.666,5.544-1.58c1.224-0.449,1.915-0.904,2.291-1.156c0.869,1.035,1.346,1.795,1.381,2.738
			c0.032,0.879-1.998,1.578-3.764,2.119c-1.282,0.396-5.294,0.469-6.264,0.489c-0.146,0.038-3.191-0.178-3.933-0.313
			c0-0.846,1.183-2.707,2.886-3.979c3.68-2.745,6.637-3.612,6.637-3.612C59.455,51.374,60.025,51.674,60.443,52.104z"/>
	</g>
	<g>
		<g>
			<path d="M22.495,0.724c0-0.395-0.21-0.723-0.762-0.723H0.753C0.34,0.001-0.003,0.253,0,0.724v2.459C0,3.578,0.332,3.9,0.753,3.9
				h6.01c0.699,0.002,1.381,0.654,1.381,1.344v10.58c0,0.363,0.294,0.723,0.789,0.723h3.091c1.505,0,2.332-1.115,2.332-2.156V5.243
				c0-0.68,0.659-1.344,1.379-1.344h6.156c0.296,0,0.604-0.047,0.604-0.717V0.724z"/>
			<path d="M51.01,0.241c-0.225-0.178-0.504-0.236-0.79-0.236h-4.354c-0.391,0-0.74,0.291-0.74,0.723v15.096
				c0,0.551,0.312,0.723,0.74,0.723h3.783c0.452,0,0.756-0.324,0.756-0.723V6.069l10.908,10.025
				c0.374,0.363,0.815,0.451,1.041,0.451h4.397c0.546,0,0.761-0.439,0.761-0.723V0.728c0-0.451-0.317-0.727-0.761-0.727h-2.253
				c-1.262,0-2.246,0.672-2.246,2.109v8.809c0,0-3.104-3.025-5.607-5.391c-2.483-2.348-5.031-4.732-5.494-5.166
				C51.108,0.325,51.063,0.284,51.01,0.241z"/>
			<path d="M29.363,9.444V5.249c0-0.695,0.671-1.346,1.377-1.346h11.703c0.533,0,0.74-0.242,0.74-0.701V0.724
				c0-0.312-0.19-0.723-0.74-0.723H26.895c-1.494,0-2.806,0.855-2.806,2.99v10.758c0,1.299,1.138,2.797,2.829,2.797h15.527
				c0.438,0,0.74-0.152,0.74-0.689v-2.184c0-0.523-0.411-0.979-0.74-0.979H30.743c-0.717,0-1.38-0.709-1.38-1.346V9.95h11.244
				c0.59,0,0.74-0.256,0.74-0.646V7.259c0-0.297-0.211-0.629-0.74-0.629h-9.313L29.363,9.444z"/>
			<path d="M104.436,15.823v-4.07l8.619-11.152c0.127-0.207,0.188-0.6-0.596-0.6h-3.482c-0.938,0-1.887,0.512-2.636,1.535
				l-5.146,6.574c-0.086,0.078-0.213,0.27-0.516,0.27c-0.305,0-0.436-0.191-0.517-0.27l-5.151-6.586
				c-0.748-1.037-1.693-1.523-2.629-1.523H88.9c-0.783,0-0.721,0.393-0.596,0.6l8.619,11.152v4.07c0,0.336,0.23,0.723,0.739,0.723
				h6.03C104.203,16.546,104.436,16.159,104.436,15.823z"/>
			<path d="M77.675,13.819h8.384l1.223,2.225c0.094,0.168,0.324,0.5,0.972,0.498l4.251,0.004c0.859,0,0.803-0.506,0.699-0.654
				L84.809,0.603c-0.197-0.355-0.442-0.588-0.99-0.602H80.59c-1.363-0.027-2.941,0.498-3.691,1.807L69.172,15.89
				c-0.104,0.15-0.16,0.656,0.699,0.656l4.251-0.004c0.647,0.002,0.877-0.33,0.972-0.498L80.73,5.776
				c0.096-0.18,0.227-0.328,0.455-0.328c0.23-0.002,0.362,0.148,0.459,0.328l2.564,4.678h-4.74L77.675,13.819z"/>
			<path d="M116.66,13.819h8.385l1.221,2.225c0.096,0.168,0.324,0.5,0.973,0.498l4.25,0.004c0.859,0,0.805-0.506,0.701-0.654
				l-8.396-15.289c-0.196-0.355-0.442-0.588-0.991-0.602h-3.228c-1.363-0.027-2.942,0.498-3.692,1.807l-7.726,14.082
				c-0.104,0.15-0.16,0.656,0.7,0.656l4.25-0.004c0.646,0.002,0.877-0.33,0.972-0.498l5.637-10.268
				c0.095-0.18,0.226-0.328,0.455-0.328c0.231-0.002,0.363,0.148,0.459,0.328l2.565,4.678h-4.74L116.66,13.819z"/>
		</g>
		<path d="M134,2.086c0,0.57-0.202,1.057-0.605,1.461c-0.401,0.402-0.889,0.604-1.457,0.604c-0.569,0-1.057-0.201-1.461-0.604
			c-0.401-0.404-0.604-0.891-0.604-1.461c0-0.568,0.201-1.055,0.604-1.457c0.404-0.404,0.892-0.605,1.461-0.605
			c0.568,0,1.056,0.201,1.457,0.605C133.798,1.031,134,1.518,134,2.086z M132.214,1.621c0-0.043-0.01-0.082-0.028-0.117
			s-0.049-0.064-0.092-0.088c-0.039-0.021-0.085-0.035-0.138-0.041c-0.052-0.006-0.108-0.008-0.175-0.008h-0.159v0.578h0.121
			c0.085,0,0.157-0.006,0.218-0.016c0.061-0.014,0.107-0.033,0.146-0.062c0.035-0.027,0.062-0.061,0.08-0.1
			C132.205,1.727,132.214,1.68,132.214,1.621z M133.096,3.064h-0.646l-0.622-0.754h-0.205v0.754h-0.506V1.01h0.779
			c0.146,0,0.262,0.006,0.349,0.018c0.088,0.012,0.175,0.041,0.261,0.086c0.094,0.053,0.161,0.117,0.205,0.191
			c0.044,0.074,0.066,0.168,0.066,0.279c0,0.148-0.043,0.271-0.127,0.369c-0.084,0.098-0.193,0.172-0.328,0.227L133.096,3.064z
			 M133.547,2.086c0-0.443-0.156-0.824-0.473-1.143c-0.312-0.318-0.691-0.479-1.137-0.479c-0.442,0-0.821,0.16-1.137,0.479
			c-0.314,0.319-0.471,0.699-0.471,1.143c0,0.444,0.156,0.826,0.471,1.145c0.315,0.319,0.693,0.479,1.137,0.479
			c0.444,0,0.824-0.16,1.137-0.479C133.391,2.912,133.547,2.529,133.547,2.086z"/>
	</g>
</g>
</svg>
